<svg xmlns="http://www.w3.org/2000/svg" width="98" height="33.207" viewBox="0 0 98 33.207">
    <g data-name="Group 4451">
        <g data-name="Group 4450">
            <path data-name="Path 40293" d="m82.957 39.452-1.993 1.994h-6.652l-1.993-1.994v-6.786l2.648.015v6.8h5.341v-6.804l2.649-1.529z" transform="translate(-34.333 -19.129)" style="fill:#ff8300"/>
            <path data-name="Path 40294" d="m100.836 33.34-1.95 1.96h-5.893v4.853h7.531l-1.966 1.967h-6.22l-1.994-1.964v-4.813l1.994-2z" transform="translate(-39.875 -19.803)" style="fill:#ff8300"/>
            <path data-name="Path 40295" d="m117.4 33.34-3.347 3.2 3.062 3.064v2.527l-2.649 1.5v-3.645l-1.952-1.951-2.827 2.672v1.413l-2.648-.016V33.34h2.648v4.316l4.569-4.316z" transform="translate(-45.007 -19.803)" style="fill:#ff8300"/>
            <path data-name="Path 40296" d="m134.5 39.452-1.995 1.994h-6.652l-1.993-1.994v-6.786l2.648.015v6.8h5.344v-6.804l2.648-1.529z" transform="translate(-50.18 -19.129)" style="fill:#ff8300"/>
            <path data-name="Path 40297" d="m153.57 39.425-2 2.695H141.4l1.949-1.964h6.678l.626-.727-.632-.793h-6.689l-1.932-2.6 1.993-2.7h10.18L151.6 35.3h-6.667l-.64.752.64.8h6.7z" transform="translate(-55.57 -19.803)" style="fill:#ff8300"/>
        </g>
        <path data-name="Path 40298" d="M52.872 47h-35.4V13.794h35.4zm-3.54-13.793-3.85-3.853 3.851-5.175-5.06-6.839H21.01v26.1l6.712-3.851v-7.432h12.842l2.057 2.018v5.416h6.712zm-8.692-6.12H27.722V22.3h12.944l1.765 2.339z" transform="translate(-17.471 -13.794)" style="fill:#ff8300"/>
    </g>
</svg>
